PathFileType  4	(X/Y/Z) C:\Users\antoi\Documents\MyRepositories\mobilecap\ResultsAnalysis
DataRate	CameraRate	NumFrames	NumMarkers	Units	OrigDataRate	OrigDataStartFrame	OrigNumFrames
100.0	100.0	7	51	mm	100.0	1	143
Frame#	Time	r_knee			r_shank_antsup			r_ankle			r_calc			r_5meta			r_toe			L_knee			L_shank_antsup			L_ankle			L_calc			L_5meta			L_toe			r_sh2			r_sh3			r_sh4			L_sh2			L_sh3			r_thigh1			r_thigh2			r_thigh3			r_thigh4			r_thigh5			L_thigh1			L_thigh2			L_thigh3			L_thigh4			r.ASIS			r.PSIS			L.ASIS			L.PSIS			C7			R_Shoulder			L_Shoulder			R_Sternum			L_Sternum			R_humerus			R_elbow_med			R_elbow_lat			R_forearm			R_wrist_radius			R_wrist_ulna			L_humerus			L_elbow_med			L_elbow_lat			L_forearm			L_wrist_radius			L_wrist_ulna			R_HJC			L_HJC			R_HJC_reg			L_HJC_reg			
		X1	Y1	Z1	X2	Y2	Z2	X3	Y3	Z3	X4	Y4	Z4	X5	Y5	Z5	X6	Y6	Z6	X7	Y7	Z7	X8	Y8	Z8	X9	Y9	Z9	X10	Y10	Z10	X11	Y11	Z11	X12	Y12	Z12	X13	Y13	Z13	X14	Y14	Z14	X15	Y15	Z15	X16	Y16	Z16	X17	Y17	Z17	X18	Y18	Z18	X19	Y19	Z19	X20	Y20	Z20	X21	Y21	Z21	X22	Y22	Z22	X23	Y23	Z23	X24	Y24	Z24	X25	Y25	Z25	X26	Y26	Z26	X27	Y27	Z27	X28	Y28	Z28	X29	Y29	Z29	X30	Y30	Z30	X31	Y31	Z31	X32	Y32	Z32	X33	Y33	Z33	X34	Y34	Z34	X35	Y35	Z35	X36	Y36	Z36	X37	Y37	Z37	X38	Y38	Z38	X39	Y39	Z39	X40	Y40	Z40	X41	Y41	Z41	X42	Y42	Z42	X43	Y43	Z43	X44	Y44	Z44	X45	Y45	Z45	X46	Y46	Z46	X47	Y47	Z47	X48	Y48	Z48	X49	Y49	Z49	X50	Y50	Z50	X51	Y51	Z51	

1	0.00000000	92.34549	487.62379	-76.65274	147.77125	443.41105	-91.33659	198.39942	102.20565	-104.71523	141.56215	61.17519	-140.98666	320.19281	67.38427	-86.66631	355.63004	111.55265	-140.29626	-205.85453	481.69068	-313.14217	-210.43072	378.10563	-316.62632	-389.25608	122.23040	-261.33407	-460.28762	96.81724	-207.28581	-306.83654	37.82047	-310.81069	-255.01346	54.51504	-261.22816	167.09740	327.23516	-78.29915	73.46742	427.46950	-62.46836	90.93579	317.30479	-65.36754	-290.80770	424.71638	-311.34086	-340.15967	311.48938	-306.64586	39.56349	802.38854	-31.91265	77.15261	692.99874	-44.05053	30.84903	653.22220	-12.96067	-64.90458	763.04500	-9.50614	-28.65123	654.70336	-22.19506	-220.71045	755.14924	-325.74180	-234.61777	617.55385	-301.10053	-118.87320	732.70303	-380.99416	-135.44888	600.48012	-349.06087	18.47633	944.21857	-83.21815	-182.81023	983.05500	-124.81570	-17.15988	920.18328	-330.08325	-203.48805	987.40339	-223.11170	-201.41183	1390.56328	-220.32400	-90.09366	1366.42781	-46.58380	-128.94675	1346.71636	-403.28926	-58.90431	1360.77524	-209.08340	-57.71680	1359.65042	-251.95159	-84.03443	1234.16751	24.92232	-143.51135	1022.75535	1.32485	-134.61087	1045.48190	68.86162	-55.62102	932.10894	106.58154	-10.11694	806.45775	132.51650	-40.69352	797.49674	148.75913	-85.42006	1238.52559	-459.87100	-27.94493	1006.21100	-406.96722	-20.50500	1036.80980	-478.86398	90.89853	1002.50266	-475.24713	219.67568	910.91739	-475.65051	203.70849	892.86888	-499.28540	-62.73697	865.28741	-86.41065	-98.68848	854.13212	-289.42059	-53.49852	854.57708	-106.64566	-87.51163	861.73001	-268.33356	
2	0.01000000	102.20326	487.30282	-76.21862	157.53594	442.51034	-92.33482	202.90332	100.49029	-105.37409	144.25234	62.16597	-141.96910	322.19731	62.55848	-86.32424	359.80065	104.89792	-140.04403	-192.80559	480.74464	-313.24168	-199.74632	377.47183	-317.07051	-385.44620	126.50359	-262.04860	-456.98443	103.70180	-208.02436	-305.97183	38.24608	-311.00996	-253.41254	54.12253	-261.83218	175.84771	325.95828	-78.44511	83.28424	427.18647	-61.68084	99.72283	316.74012	-64.89461	-278.72258	426.16154	-311.66839	-331.53326	314.81383	-307.08379	52.78397	803.16795	-32.02971	90.07540	693.58697	-44.42185	43.92904	654.31386	-13.27724	-51.12203	764.48707	-8.80416	-15.86149	655.75831	-21.54710	-208.11445	754.23092	-324.33915	-221.81788	616.52107	-300.56243	-106.67092	732.14289	-380.55519	-122.80808	599.71767	-349.15152	31.27206	944.95643	-82.95286	-170.37575	983.26929	-124.12437	-4.79429	919.93227	-329.88789	-191.44957	986.93788	-222.63154	-189.16216	1390.26507	-218.82464	-77.88769	1365.72865	-45.12570	-116.28699	1346.84435	-401.96259	-46.48114	1360.58255	-207.58195	-45.37193	1359.47574	-250.43369	-71.51702	1233.47344	25.91752	-131.05946	1021.77731	1.44799	-122.64314	1044.60501	69.19696	-44.17935	930.62894	107.35695	-0.13709	804.74884	133.49684	-30.80979	796.03200	149.58554	-72.95405	1238.40523	-458.51479	-17.32179	1005.85513	-405.06402	-10.07706	1036.14425	-477.03429	101.40899	1001.08033	-473.67471	229.58796	908.83416	-473.78184	213.63742	890.67804	-497.30147	-49.80610	865.83902	-85.73469	-86.20083	853.81273	-288.61273	-40.53033	855.36346	-105.62798	-75.13403	861.39098	-267.38636	
3	0.02000000	112.23780	487.09644	-75.78622	167.34468	441.59813	-93.21416	207.15561	98.85034	-105.99463	146.80410	63.19339	-142.93018	324.09760	57.94899	-86.02233	363.72807	98.46360	-139.90326	-179.29566	479.80307	-313.46060	-188.66825	376.85611	-317.64951	-381.31947	131.03487	-262.84368	-453.30570	110.98622	-208.80436	-305.02076	38.76390	-311.18208	-251.72606	53.68510	-262.43019	184.53431	324.69010	-78.58813	93.17636	426.99427	-60.85552	108.44533	316.28117	-64.34118	-266.19116	427.64469	-312.04744	-322.47353	318.22381	-307.52941	65.96302	803.98370	-32.17916	102.98033	694.29283	-44.92283	56.94117	655.45213	-13.46917	-37.38303	765.99320	-7.91478	-3.03304	656.86216	-20.77812	-195.28679	753.23502	-322.97318	-208.63352	615.37299	-300.06579	-94.19776	731.61342	-380.07719	-109.78254	598.96892	-349.26361	44.11606	945.83556	-82.67376	-157.88552	983.54822	-123.41315	7.66052	919.76404	-329.64517	-179.30655	986.51378	-222.09443	-176.89090	1390.03255	-217.30492	-65.63174	1365.10075	-43.66275	-103.63563	1347.04962	-400.60823	-34.05555	1360.44538	-206.07299	-33.05663	1359.37338	-248.91247	-59.00717	1232.80888	26.92941	-118.56341	1020.89880	1.58280	-110.57684	1043.77913	69.52843	-32.63518	929.24194	108.08000	9.97087	803.12242	134.40391	-20.79770	794.64342	150.35715	-60.50733	1238.38181	-457.14787	-6.80985	1005.58603	-403.13865	0.33673	1035.54073	-475.20246	111.83696	999.63827	-472.06269	239.31113	906.59594	-471.88700	223.34281	888.36032	-495.29794	-36.77459	866.50295	-85.00982	-73.60298	853.56004	-287.75230	-27.50132	856.26684	-104.60360	-62.62669	861.13277	-266.42366	
4	0.03000000	122.57495	487.09593	-75.36394	177.22243	440.68535	-93.90826	210.98215	97.34822	-106.56967	149.10297	64.25519	-143.83529	325.80668	53.75873	-85.79810	367.21696	92.46467	-139.95688	-164.93992	478.86937	-313.92085	-176.85206	376.26318	-318.49257	-376.58616	136.04177	-263.80104	-448.90396	119.01668	-209.67038	-303.90400	39.46044	-311.30852	-249.88919	53.16654	-263.01912	193.10421	323.45770	-78.73760	103.19433	426.97456	-59.97618	117.05749	316.02091	-63.65288	-252.82455	429.18741	-312.54559	-312.59696	321.78019	-308.02958	79.04897	804.88625	-32.39574	115.84108	695.21447	-45.62154	69.84985	656.68828	-13.44589	-23.71604	767.61315	-6.70980	9.86266	658.06432	-19.79374	-182.04555	752.08950	-321.68279	-194.73972	614.00524	-299.65844	-81.22578	731.13863	-379.53361	-96.04272	598.24075	-349.43111	57.03179	946.95496	-82.35770	-145.30471	983.94360	-122.66288	20.27162	919.73896	-329.31397	-166.98762	986.16478	-221.45928	-164.58955	1389.91308	-215.74534	-53.28577	1364.60173	-42.19150	-91.01366	1347.38928	-399.20536	-21.63026	1360.40986	-204.55270	-20.78245	1359.40211	-247.38466	-46.48433	1232.20753	27.96718	-105.98868	1020.19731	1.74232	-98.33836	1043.04846	69.85700	-20.92419	928.02083	108.71095	20.31564	801.64547	135.17928	-10.54742	793.39246	151.02825	-48.09210	1238.53001	-455.75526	3.51338	1005.46703	-401.18047	10.71485	1035.05327	-473.36869	122.11211	998.15855	-470.38330	248.68882	904.07694	-469.94289	232.64320	885.81507	-493.26258	-23.58231	867.36025	-84.19370	-60.81808	853.42503	-286.79609	-14.37797	857.37473	-103.55569	-49.90307	861.01421	-265.42499	
5	0.04000000	133.24405	487.35270	-74.96641	187.15449	439.81258	-94.42795	214.31554	96.02339	-107.13281	151.07017	65.29929	-144.63699	327.26458	50.15875	-85.67838	370.14655	87.09758	-140.23733	-149.48545	477.94126	-314.73928	-164.04380	375.68359	-319.71176	-371.00047	141.66380	-264.99957	-443.47268	128.03731	-210.67173	-302.55249	40.41728	-311.38686	-247.86299	52.55447	-263.60426	201.51406	322.31098	-78.91757	113.33998	427.18776	-59.05352	125.53092	316.02570	-62.81738	-238.33875	430.78656	-313.25046	-301.61150	325.50570	-308.68155	91.97766	805.93510	-32.69839	128.61586	696.40785	-46.48356	82.65226	658.07151	-13.16901	-10.13922	769.37130	-5.16049	22.82219	659.40976	-18.55012	-168.29358	750.73240	-320.50679	-179.92313	612.33790	-299.39896	-67.61112	730.73201	-378.92037	-81.36639	597.53147	-349.70627	69.99862	948.34756	-81.96835	-132.64098	984.48573	-121.85952	33.06091	919.88463	-328.86164	-154.48201	985.91185	-220.71156	-152.27629	1389.92743	-214.13219	-40.83506	1364.26718	-40.71219	-78.46625	1347.88811	-397.74577	-9.22247	1360.50650	-203.02352	-8.54705	1359.59671	-245.84945	-33.90436	1231.70480	29.02878	-93.32292	1019.71431	1.94100	-85.89830	1042.44621	70.19121	-9.04084	927.00618	109.22967	30.96791	800.36071	135.78742	0.01552	792.31709	151.56782	-35.72080	1238.88685	-454.31831	13.61100	1005.52529	-399.19829	21.02207	1034.71885	-471.53837	132.17837	996.62795	-468.62884	257.61252	901.20061	-467.93457	241.41938	882.98726	-491.19692	-10.24026	868.44280	-83.25623	-47.82920	853.43457	-285.71741	-1.17715	858.72839	-102.45351	-36.95074	861.06131	-264.36299	
6	0.05000000	144.17192	487.87454	-74.60651	197.08558	439.03600	-94.84477	217.17103	94.88895	-107.74005	152.66318	66.24572	-145.29067	328.44187	47.26291	-85.66801	372.47192	82.51514	-140.71943	-132.80209	476.99927	-316.01556	-150.07991	375.10374	-321.39125	-364.35123	147.94689	-266.50961	-436.72834	138.18231	-211.86538	-300.91114	41.71810	-311.43519	-245.62586	51.87401	-264.20619	209.72791	321.30803	-79.15719	123.56487	427.66170	-58.11332	133.84385	316.32471	-61.86509	-222.55590	432.41873	-314.25990	-289.32109	329.39271	-309.61160	104.69776	807.17790	-33.05686	141.26389	697.87197	-47.37257	95.36708	659.63426	-12.64790	3.33736	771.26675	-3.33663	35.80430	660.93264	-17.06357	-154.00281	749.10791	-319.47513	-164.08572	610.32066	-299.35749	-53.29853	730.39597	-378.25904	-65.64631	596.83280	-350.15723	82.96304	949.98637	-81.45816	-119.94007	985.18307	-121.00008	46.00670	920.20183	-328.25875	-141.83419	985.76318	-219.86492	-139.98752	1390.07520	-212.46281	-28.28771	1364.10982	-39.22876	-66.05024	1348.53962	-396.23433	3.14382	1360.74947	-201.49226	3.65741	1359.96572	-244.30992	-21.21538	1231.32970	30.10366	-80.56813	1019.45389	2.19350	-73.26151	1041.99425	70.54824	2.98640	926.20485	109.63539	41.96509	799.28540	136.21521	10.93540	791.43042	151.96077	-23.40790	1239.44923	-452.81813	23.48005	1005.75399	-397.21876	31.22194	1034.55055	-469.72160	142.00007	995.03854	-466.81103	266.02787	897.93934	-465.85768	249.61955	879.86896	-489.11595	3.17829	869.73778	-82.18016	-34.67147	853.59370	-284.50649	12.04308	860.32747	-101.25392	-23.82135	861.27254	-263.20121	
7	0.06000000	155.20358	488.62877	-74.28419	206.92390	438.39726	-95.23793	219.59589	93.93856	-108.43220	153.87332	67.02234	-145.77319	329.33986	45.10493	-85.74289	374.20963	78.79996	-141.33031	-114.84878	475.99863	-317.81641	-134.87364	374.52005	-323.57369	-356.45077	154.84328	-268.38343	-428.39426	149.48455	-213.31578	-298.93994	43.45694	-311.49089	-243.15636	51.20094	-264.86377	217.70205	320.48773	-79.47057	133.77171	428.38151	-57.18245	141.95530	316.90255	-60.85869	-205.39208	434.05322	-315.65709	-275.61863	333.42021	-310.92961	117.18997	808.62310	-33.37302	153.75352	699.54546	-48.09713	108.00251	661.37251	-11.92045	16.69712	773.27942	-1.36477	48.72648	662.64537	-15.40038	-139.18009	747.16064	-318.59831	-147.22829	607.93193	-299.60774	-38.31172	730.12379	-377.59336	-48.87827	596.13574	-350.85407	95.85751	951.80834	-80.77809	-107.27155	986.02613	-120.09850	59.05053	920.67684	-327.47341	-129.12653	985.71701	-218.95670	-127.76459	1390.34667	-210.74913	-15.67056	1364.12426	-37.74876	-53.81691	1349.31615	-394.68647	15.44518	1361.13897	-199.96745	15.82801	1360.49697	-242.77418	-8.38333	1231.09825	31.17769	-67.73154	1019.39239	2.51183	-60.45104	1041.70454	70.95133	15.13663	925.59898	109.94066	53.32293	798.41670	136.46599	22.23603	790.72609	152.20600	-11.17867	1240.18205	-451.24335	33.13260	1006.12312	-395.27835	41.28792	1034.53743	-467.93129	151.56056	993.38786	-464.95456	273.92616	894.30484	-463.72059	257.24757	876.48942	-487.04440	16.56254	871.20485	-80.96025	-21.41382	853.89236	-283.16759	25.20416	862.14446	-99.90961	-10.60676	861.63236	-261.89490	
